# xmcd
#
# Track frame offsets:
#	150
#	19742
#	34395
#	45462
#	57690
#
# Disc length: 940 seconds
#
# Revision: 1
# Processed by: cddbd v1.5.2PL0 Copyright (c) Steve Scherf et al.
# Submitted via: audiograbber 1.83.01
#
DISCID=4003aa05
DTITLE=Tonya Rae - Downhome Girl Tonya Rae
DYEAR=1900
DGENRE=
TTITLE0=Perfect Stranger
TTITLE1=Coat Of Many Colors
TTITLE2=I Gotta Dance
TTITLE3=Your Side Of The Bed
TTITLE4=Whole Lotta Trouble For A Little Bit Of Love
EXTD=
EXTT0=
EXTT1=
EXTT2=
EXTT3=
EXTT4=
PLAYORDER=
